# WaveFront *.obj file (generated by Autodesk ATF)

mtllib ba71b860-402f-4b7d-bda3-62813842c6a2.mtl

g wall

v 20.000000 0.000000 20.000000
v 4980.000000 0.000000 20.000000
v 4980.000000 2350.000000 20.000000
v 20.000000 2350.000000 20.000000
v 20.000000 0.000000 4000.000000
v 20.000000 2350.000000 4000.000000
v 0.000000 0.000000 4000.000000
v 0.000000 2350.000000 4000.000000
v 0.000000 0.000000 0.000000
v 0.000000 2350.000000 0.000000
v 5000.000000 0.000000 0.000000
v 5000.000000 2350.000000 0.000000
v 5000.000000 0.000000 4000.000000
v 5000.000000 2350.000000 4000.000000
v 4980.000000 0.000000 4000.000000
v 4980.000000 2350.000000 4000.000000
vt 0.000000 0.000000 0.000000
vt 496.000000 0.000000 0.000000
vt 0.000000 235.000000 0.000000
vt 496.000000 235.000000 0.000000
vt -0.000000 0.000000 0.000000
vt 398.000000 0.000000 0.000000
vt -0.000000 235.000000 0.000000
vt 398.000000 235.000000 0.000000
vt 0.000000 0.000000 0.000000
vt 2.000000 0.000000 0.000000
vt 0.000000 235.000000 0.000000
vt 2.000000 235.000000 0.000000
vt 0.000000 0.000000 0.000000
vt 400.000000 0.000000 0.000000
vt 0.000000 235.000000 0.000000
vt 400.000000 235.000000 0.000000
vt 0.000000 0.000000 0.000000
vt 500.000000 0.000000 0.000000
vt 0.000000 235.000000 0.000000
vt 500.000000 235.000000 0.000000
vt 0.000000 0.000000 0.000000
vt 400.000000 0.000000 0.000000
vt 0.000000 235.000000 0.000000
vt 400.000000 235.000000 0.000000
vt 0.000000 0.000000 0.000000
vt 2.000000 0.000000 0.000000
vt 0.000000 235.000000 0.000000
vt 2.000000 235.000000 0.000000
vt 0.000000 0.000000 0.000000
vt 398.000000 0.000000 0.000000
vt 0.000000 235.000000 0.000000
vt 398.000000 235.000000 0.000000
vt 200.000000 248.000000 0.000000
vt 200.000000 250.000000 0.000000
vt -198.000000 248.000000 0.000000
vt -200.000000 250.000000 0.000000
vt -200.000000 -250.000000 0.000000
vt -198.000000 -248.000000 0.000000
vt 200.000000 -250.000000 0.000000
vt 200.000000 -248.000000 0.000000
vt -248.000000 -200.000000 0.000000
vt -248.000000 198.000000 0.000000
vt -250.000000 -200.000000 0.000000
vt -250.000000 200.000000 0.000000
vt 248.000000 198.000000 0.000000
vt 250.000000 200.000000 0.000000
vt 250.000000 -200.000000 0.000000
vt 248.000000 -200.000000 0.000000
vn 0.000000 -0.000000 0.100000
vn 0.000000 -0.000000 0.100000
vn 0.000000 -0.000000 0.100000
vn 0.000000 -0.000000 0.100000
vn 0.100000 0.000000 0.000000
vn 0.100000 0.000000 0.000000
vn 0.100000 0.000000 0.000000
vn 0.100000 0.000000 0.000000
vn 0.000000 -0.000000 0.100000
vn 0.000000 -0.000000 0.100000
vn 0.000000 -0.000000 0.100000
vn 0.000000 -0.000000 0.100000
vn -0.100000 0.000000 0.000000
vn -0.100000 0.000000 0.000000
vn -0.100000 0.000000 0.000000
vn -0.100000 0.000000 0.000000
vn 0.000000 0.000000 -0.100000
vn 0.000000 0.000000 -0.100000
vn 0.000000 0.000000 -0.100000
vn 0.000000 0.000000 -0.100000
vn 0.100000 -0.000000 0.000000
vn 0.100000 -0.000000 0.000000
vn 0.100000 -0.000000 0.000000
vn 0.100000 -0.000000 0.000000
vn 0.000000 0.000000 0.100000
vn 0.000000 0.000000 0.100000
vn 0.000000 0.000000 0.100000
vn 0.000000 0.000000 0.100000
vn -0.100000 0.000000 0.000000
vn -0.100000 0.000000 0.000000
vn -0.100000 0.000000 0.000000
vn -0.100000 0.000000 0.000000
vn 0.000000 0.100000 0.000000
vn 0.000000 0.100000 0.000000
vn 0.000000 0.100000 0.000000
vn 0.000000 0.100000 0.000000
vn 0.000000 0.100000 0.000000
vn 0.000000 0.100000 0.000000
vn 0.000000 0.100000 0.000000
vn 0.000000 0.100000 0.000000
vn 0.000000 -0.100000 0.000000
vn 0.000000 -0.100000 0.000000
vn 0.000000 -0.100000 0.000000
vn 0.000000 -0.100000 0.000000
vn 0.000000 -0.100000 0.000000
vn 0.000000 -0.100000 0.000000
vn 0.000000 -0.100000 0.000000
vn 0.000000 -0.100000 0.000000
usemtl Steel_-_Satin
f 1/1/1 2/2/2 4/3/3
f 4/3/3 2/2/2 3/4/4
f 5/5/5 1/6/6 6/7/7
f 6/7/7 1/6/6 4/8/8
f 7/9/9 5/10/10 8/11/11
f 8/11/11 5/10/10 6/12/12
f 9/13/13 7/14/14 10/15/15
f 10/15/15 7/14/14 8/16/16
f 11/17/17 9/18/18 12/19/19
f 12/19/19 9/18/18 10/20/20
f 13/21/21 11/22/22 14/23/23
f 14/23/23 11/22/22 12/24/24
f 15/25/25 13/26/26 16/27/27
f 16/27/27 13/26/26 14/28/28
f 2/29/29 15/30/30 3/31/31
f 3/31/31 15/30/30 16/32/32
f 16/33/33 14/34/34 3/35/35
f 3/35/35 14/34/34 12/36/36
f 3/35/35 12/36/36 10/37/37
f 3/35/35 10/37/37 4/38/38
f 4/38/38 10/37/37 8/39/39
f 4/38/38 8/39/39 6/40/40
f 15/41/41 2/42/42 13/43/43
f 13/43/43 2/42/42 11/44/44
f 11/44/44 2/42/42 1/45/45
f 11/44/44 1/45/45 9/46/46
f 9/46/46 1/45/45 7/47/47
f 7/47/47 1/45/45 5/48/48
g floor

v 5000.000000 0.000000 0.000000
v 5000.000000 0.000000 4000.000000
v 5000.000000 -20.000000 4000.000000
v 5000.000000 -20.000000 0.000000
v 0.000000 0.000000 0.000000
v 0.000000 -20.000000 0.000000
v 0.000000 0.000000 4000.000000
v 0.000000 -20.000000 4000.000000
vt 0.000000 0.000000 0.000000
vt 400.000000 0.000000 0.000000
vt 0.000000 2.000000 0.000000
vt 400.000000 2.000000 0.000000
vt 0.000000 0.000000 0.000000
vt 500.000000 0.000000 0.000000
vt 0.000000 2.000000 0.000000
vt 500.000000 2.000000 0.000000
vt 0.000000 0.000000 0.000000
vt 400.000000 0.000000 0.000000
vt 0.000000 2.000000 0.000000
vt 400.000000 2.000000 0.000000
vt 0.000000 0.000000 0.000000
vt 500.000000 0.000000 0.000000
vt 0.000000 2.000000 0.000000
vt 500.000000 2.000000 0.000000
vt -250.000000 -200.000000 0.000000
vt 250.000000 -200.000000 0.000000
vt -250.000000 200.000000 0.000000
vt 250.000000 200.000000 0.000000
vt -200.000000 -250.000000 0.000000
vt 200.000000 -250.000000 0.000000
vt -200.000000 250.000000 0.000000
vt 200.000000 250.000000 0.000000
vn 0.100000 0.000000 0.000000
vn 0.100000 0.000000 0.000000
vn 0.100000 0.000000 0.000000
vn 0.100000 0.000000 0.000000
vn 0.000000 0.000000 -0.100000
vn 0.000000 0.000000 -0.100000
vn 0.000000 0.000000 -0.100000
vn 0.000000 0.000000 -0.100000
vn -0.100000 0.000000 0.000000
vn -0.100000 0.000000 0.000000
vn -0.100000 0.000000 0.000000
vn -0.100000 0.000000 0.000000
vn 0.000000 0.000000 0.100000
vn 0.000000 0.000000 0.100000
vn 0.000000 0.000000 0.100000
vn 0.000000 0.000000 0.100000
vn 0.000000 0.100000 0.000000
vn 0.000000 0.100000 0.000000
vn 0.000000 0.100000 0.000000
vn 0.000000 0.100000 0.000000
vn 0.000000 -0.100000 0.000000
vn 0.000000 -0.100000 0.000000
vn 0.000000 -0.100000 0.000000
vn 0.000000 -0.100000 0.000000
f 17/49/49 18/50/50 20/51/51
f 20/51/51 18/50/50 19/52/52
f 21/53/53 17/54/54 22/55/55
f 22/55/55 17/54/54 20/56/56
f 23/57/57 21/58/58 24/59/59
f 24/59/59 21/58/58 22/60/60
f 18/61/61 23/62/62 19/63/63
f 19/63/63 23/62/62 24/64/64
f 23/65/65 18/66/66 21/67/67
f 21/67/67 18/66/66 17/68/68
f 24/69/69 22/70/70 19/71/71
f 19/71/71 22/70/70 20/72/72
# 24 vertices
# 72 texture params
# 72 normals
# 40 facets

# 2 groups
