# 3ds Max Wavefront OBJ Exporter v0.97b - (c)2007 guruware
# File Created: 25.03.2019 17:55:31

mtllib bookcase white 160x28x202.mtl

#
# object bookcase
#

v  -400.0000 -0.0071 139.0000
v  -400.0000 -0.0071 -140.0000
v  -377.6471 -0.0071 -140.0000
v  -377.6471 -0.0071 140.0000
v  -399.0000 -0.0071 140.0000
v  377.6471 -0.0071 140.0000
v  377.6471 -0.0071 -140.0000
v  400.0000 -0.0071 -140.0000
v  399.0000 -0.0071 140.0000
v  400.0000 -0.0071 139.0000
v  -399.0000 2020.0000 139.0000
v  -377.6471 2020.0000 139.0000
v  -377.6471 2020.0000 -140.0000
v  -399.0000 2020.0000 -140.0000
v  377.6471 2020.0000 139.0000
v  377.6471 2020.0000 -140.0000
v  399.0000 2020.0000 139.0000
v  399.0000 2020.0000 -140.0000
v  -377.6471 77.7054 140.0000
v  -399.0000 77.7054 140.0000
v  376.6471 0.0142 -129.9527
v  376.6471 76.7054 -129.9527
v  -376.6471 76.7054 -129.9527
v  -376.6471 0.0142 -129.9527
v  399.0000 77.7054 140.0000
v  377.6471 77.7054 140.0000
v  -399.0000 99.9964 140.0000
v  -377.6471 99.9964 140.0000
v  -377.6471 1997.6948 140.0000
v  -399.0000 1997.6948 140.0000
v  -376.6471 100.9964 -129.9679
v  376.6471 100.9964 -129.9679
v  376.6471 1996.6948 -129.9679
v  -376.6471 1996.6948 -129.9679
v  377.6471 99.9964 140.0000
v  399.0000 99.9964 140.0000
v  399.0000 1997.6948 140.0000
v  377.6471 1997.6948 140.0000
v  -377.6471 2019.0000 140.0000
v  -399.0000 2019.0000 140.0000
v  377.6471 2019.0000 140.0000
v  399.0000 2019.0000 140.0000
v  400.0000 77.7054 -140.0000
v  400.0000 77.7054 139.0000
v  400.0000 99.9964 139.0000
v  400.0000 99.9964 -140.0000
v  400.0000 1997.6948 -140.0000
v  400.0000 1997.6948 139.0000
v  400.0000 2019.0000 -140.0000
v  400.0000 2019.0000 139.0000
v  377.6471 77.7054 -140.0000
v  -377.6471 77.7054 -140.0000
v  -400.0000 77.7054 -140.0000
v  377.6472 99.9964 -140.0000
v  377.6472 1997.6948 -140.0000
v  -377.6470 99.9964 -140.0000
v  -377.6470 1997.6948 -140.0000
v  -400.0000 99.9964 -140.0000
v  -400.0000 1997.6948 -140.0000
v  -400.0000 2019.0000 -140.0000
v  -400.0000 77.7054 139.0000
v  -400.0000 99.9964 139.0000
v  -400.0000 1997.6948 139.0000
v  -400.0000 2019.0000 139.0000
v  376.6471 100.9964 139.0000
v  -376.6471 100.9964 139.0000
v  376.6471 1996.6948 139.0000
v  -376.6471 1996.6948 139.0000
v  376.6471 76.7054 139.0000
v  376.6471 0.0141 139.0000
v  -376.6471 76.7054 139.0000
v  -376.6471 0.0141 139.0000
v  -391.4000 318.7038 129.0000
v  -391.4000 318.7038 -130.0000
v  391.4000 318.7038 -130.0000
v  391.4000 318.7038 129.0000
v  -391.4000 338.7038 129.0000
v  391.4000 338.7038 129.0000
v  391.4000 338.7038 -130.0000
v  -391.4000 338.7038 -130.0000
v  -391.4000 319.7038 130.0000
v  391.4000 319.7038 130.0000
v  391.4000 337.7038 130.0000
v  -391.4000 337.7038 130.0000
v  -391.4000 558.9249 129.0000
v  -391.4000 558.9249 -130.0000
v  391.4000 558.9249 -130.0000
v  391.4000 558.9249 129.0000
v  -391.4000 578.9249 129.0000
v  391.4000 578.9249 129.0000
v  391.4000 578.9249 -130.0000
v  -391.4000 578.9249 -130.0000
v  -391.4000 559.9249 130.0000
v  391.4000 559.9249 130.0000
v  391.4000 577.9249 130.0000
v  -391.4000 577.9249 130.0000
v  -391.4000 799.1460 129.0000
v  -391.4000 799.1460 -130.0000
v  391.4000 799.1460 -130.0000
v  391.4000 799.1460 129.0000
v  -391.4000 819.1460 129.0000
v  391.4000 819.1460 129.0000
v  391.4000 819.1460 -130.0000
v  -391.4000 819.1460 -130.0000
v  -391.4000 800.1460 130.0000
v  391.4000 800.1460 130.0000
v  391.4000 818.1460 130.0000
v  -391.4000 818.1460 130.0000
v  -391.4000 1039.3671 129.0000
v  -391.4000 1039.3671 -130.0000
v  391.4000 1039.3671 -130.0000
v  391.4000 1039.3671 129.0000
v  -391.4000 1059.3671 129.0000
v  391.4000 1059.3671 129.0000
v  391.4000 1059.3671 -130.0000
v  -391.4000 1059.3671 -130.0000
v  -391.4000 1040.3671 130.0000
v  391.4000 1040.3671 130.0000
v  391.4000 1058.3671 130.0000
v  -391.4000 1058.3671 130.0000
v  -391.4000 1279.5881 129.0000
v  -391.4000 1279.5881 -130.0000
v  391.4000 1279.5881 -130.0000
v  391.4000 1279.5881 129.0000
v  -391.4000 1299.5881 129.0000
v  391.4000 1299.5881 129.0000
v  391.4000 1299.5881 -130.0000
v  -391.4000 1299.5881 -130.0000
v  -391.4000 1280.5881 130.0000
v  391.4000 1280.5881 130.0000
v  391.4000 1298.5881 130.0000
v  -391.4000 1298.5881 130.0000
v  -391.4000 1519.8092 129.0000
v  -391.4000 1519.8092 -130.0000
v  391.4000 1519.8092 -130.0000
v  391.4000 1519.8092 129.0000
v  -391.4000 1539.8092 129.0000
v  391.4000 1539.8092 129.0000
v  391.4000 1539.8092 -130.0000
v  -391.4000 1539.8092 -130.0000
v  -391.4000 1520.8092 130.0000
v  391.4000 1520.8092 130.0000
v  391.4000 1538.8092 130.0000
v  -391.4000 1538.8092 130.0000
v  -391.4000 1760.0303 129.0001
v  -391.4000 1760.0303 -129.9999
v  391.4000 1760.0303 -129.9999
v  391.4000 1760.0303 129.0001
v  -391.4000 1780.0303 129.0001
v  391.4000 1780.0303 129.0001
v  391.4000 1780.0303 -129.9999
v  -391.4000 1780.0303 -129.9999
v  -391.4000 1761.0303 130.0001
v  391.4000 1761.0303 130.0001
v  391.4000 1779.0303 130.0001
v  -391.4000 1779.0303 130.0001
# 156 vertices

vn 0.0000 -1.0000 -0.0000
vn -0.0000 -1.0000 -0.0000
vn 0.0000 1.0000 -0.0000
vn 0.0000 0.0000 1.0000
vn 0.0000 -0.0000 1.0000
vn 1.0000 -0.0000 -0.0000
vn 1.0000 0.0000 -0.0000
vn 0.0000 0.0000 -1.0000
vn 0.0000 -0.0000 -1.0000
vn -0.0000 -0.0000 -1.0000
vn -1.0000 0.0000 -0.0000
vn 0.0000 0.7071 0.7071
vn -0.7071 -0.0000 0.7071
vn 0.0000 -0.7071 0.7071
vn 0.7071 -0.0000 0.7071
vn 0.0000 1.0000 0.0000
vn -0.7071 0.0000 0.7071
vn 0.7071 0.0000 0.7071
vn -0.5774 0.5774 0.5774
vn 0.5774 0.5774 0.5774
vn -0.7071 0.7071 -0.0000
vn 0.7071 0.7071 -0.0000
# 22 vertex normals

vt 1.0000 0.0036 0.0000
vt 1.0000 1.0000 0.0000
vt 0.6667 1.0000 0.0000
vt 0.6667 0.0000 0.0000
vt 0.9851 0.0000 0.0000
vt 0.3333 0.0000 0.0000
vt 0.3333 1.0000 0.0000
vt -0.0000 1.0000 0.0000
vt 0.0149 0.0000 0.0000
vt -0.0000 0.0036 0.0000
vt 0.0149 0.0036 0.0000
vt 0.3333 0.0036 0.0000
vt 0.0149 1.0000 0.0000
vt 0.6667 0.0036 0.0000
vt 0.9851 0.0036 0.0000
vt 0.9851 1.0000 0.0000
vt 0.3333 0.1667 0.0000
vt 0.0149 0.1667 0.0000
vt 0.6667 0.1667 0.0000
vt 0.9851 0.1667 0.0000
vt 0.0149 0.3333 0.0000
vt 0.3333 0.3333 0.0000
vt 0.3333 0.6667 0.0000
vt 0.0149 0.6667 0.0000
vt 0.6667 0.3333 0.0000
vt 0.6667 0.6667 0.0000
vt 0.9851 0.3333 0.0000
vt 0.9851 0.6667 0.0000
vt 0.3333 0.9851 0.0000
vt 0.0149 0.9851 0.0000
vt 0.6667 0.9851 0.0000
vt 0.9851 0.9851 0.0000
vt 1.0000 0.0000 0.0000
vt 1.0000 0.1667 0.0000
vt 0.0036 0.1667 0.0000
vt 0.0036 0.0000 0.0000
vt 0.0036 0.3333 0.0000
vt 1.0000 0.3333 0.0000
vt 1.0000 0.6667 0.0000
vt 0.0036 0.6667 0.0000
vt 1.0000 0.9851 0.0000
vt 0.0036 0.9851 0.0000
vt 0.0000 0.1667 0.0000
vt 0.0000 0.0000 0.0000
vt 0.0000 0.3333 0.0000
vt 0.0000 0.6667 0.0000
vt 0.0000 0.9851 0.0000
vt 0.9964 0.0000 0.0000
vt 0.9964 0.1667 0.0000
vt 0.9964 0.3333 0.0000
vt 0.9964 0.6667 0.0000
vt 0.9964 0.9851 0.0000
vt 0.0013 0.0115 0.0000
vt 0.0013 -0.0043 0.0000
vt 0.9714 0.9929 0.0000
vt 0.9715 0.9772 0.0000
vt 0.0160 1.0084 0.0000
vt 0.3445 1.0114 0.0000
vt -0.0004 0.9901 0.0000
vt 0.9960 0.9901 0.0000
vt 0.3333 0.9993 0.0000
vt 0.6667 0.9993 0.0000
vt 0.6555 1.0114 0.0000
vt 0.9840 1.0084 0.0000
vt 0.0040 0.9901 0.0000
vt 1.0004 0.9901 0.0000
vt 1.0492 0.3333 0.0000
vt 1.0492 0.1667 0.0000
vt 0.0178 -0.0000 0.0000
vt 0.0178 0.1667 0.0000
vt 0.9575 0.6667 0.0000
vt 0.9575 0.3333 0.0000
vt 0.0425 0.3333 0.0000
vt 0.0425 0.6667 0.0000
vt 1.0004 0.9820 0.0000
vt 1.0004 0.6676 0.0000
vt -0.0004 0.6676 0.0000
vt -0.0004 0.9820 0.0000
vt 0.9822 0.1667 0.0000
vt 0.9822 -0.0000 0.0000
vt -0.0492 0.1667 0.0000
vt -0.0492 0.3333 0.0000
vt 1.0000 0.0038 0.0000
vt 0.0000 1.0000 0.0000
vt 0.0000 0.0038 0.0000
vt 0.0000 0.0500 0.0000
vt 1.0000 0.0500 0.0000
vt 1.0000 0.9500 0.0000
vt 0.0000 0.9500 0.0000
vt 1.0000 0.0026 0.0000
vt 0.0000 0.0026 0.0000
vt 0.0000 0.9974 0.0000
vt 1.0000 0.9974 0.0000
# 93 texture coords

g bookcase
usemtl wire_086086086
s 1
f 1/1/1 2/2/1 3/3/1 4/4/1 
f 5/5/1 1/1/1 4/4/1 
f 6/6/1 7/7/1 8/8/2 9/9/2 
f 8/8/2 10/10/2 9/9/2 
f 11/11/3 12/12/3 13/7/3 14/13/3 
f 12/12/3 15/14/3 16/3/3 13/7/3 
f 15/14/3 17/15/3 18/16/3 16/3/3 
s 2
f 4/6/4 19/17/4 20/18/4 5/9/4 
s 1
f 21/4/4 22/19/4 23/17/4 24/6/4 
s 2
f 9/5/4 25/20/4 26/19/4 6/4/4 
f 27/21/4 28/22/4 29/23/4 30/24/4 
s 1
f 31/22/5 32/25/5 33/26/5 34/23/5 
s 2
f 35/25/4 36/27/4 37/28/4 38/26/4 
f 30/24/4 29/23/4 39/29/4 40/30/4 
f 29/23/4 38/26/4 41/31/4 39/29/4 
f 38/26/4 37/28/4 42/32/4 41/31/4 
f 8/33/6 43/34/6 44/35/6 10/36/6 
f 45/37/7 46/38/7 47/39/7 48/40/7 
f 48/40/7 47/39/7 49/41/7 50/42/7 
s 4
f 7/6/8 51/17/9 43/43/9 8/44/8 
f 3/4/8 52/19/9 51/17/9 7/6/8 
f 2/33/8 53/34/9 52/19/9 3/4/8 
f 46/45/9 54/22/9 55/23/9 47/46/10 
f 54/22/9 56/25/9 57/26/9 55/23/9 
f 56/25/9 58/38/9 59/39/9 57/26/9 
f 47/46/10 55/23/9 16/7/10 49/47/10 
f 16/7/10 18/13/8 49/47/10 
f 55/23/9 57/26/9 13/3/9 16/7/10 
f 59/39/9 60/41/9 14/16/9 57/26/9 
f 57/26/9 14/16/9 13/3/9 
s 2
f 1/48/11 61/49/11 53/43/11 2/44/11 
f 58/45/11 62/50/11 63/51/11 59/46/11 
f 59/46/11 63/51/11 64/52/11 60/47/11 
s 1
f 28/22/12 35/25/12 65/25/12 66/22/12 
s 4
f 35/25/13 38/26/13 67/26/13 65/25/13 
s 1
f 38/26/14 29/23/14 68/23/14 67/26/14 
s 4
f 29/23/15 28/22/15 66/22/15 68/23/15 
s 2
f 66/22/16 65/25/16 32/25/16 31/22/16 
s 8
f 65/25/11 67/26/11 33/26/11 32/25/11 
s 2
f 67/26/1 68/23/1 34/23/1 33/26/1 
s 8
f 68/23/7 66/22/7 31/22/7 34/23/7 
s 2
f 28/22/4 27/21/4 20/18/4 19/17/4 
f 35/25/4 28/22/4 19/17/4 26/19/4 
f 36/27/4 35/25/4 26/19/4 25/20/4 
f 46/38/7 45/37/7 44/35/6 43/34/6 
s 4
f 54/22/9 46/45/9 43/43/9 51/17/9 
f 56/25/9 54/22/9 51/17/9 52/19/9 
f 58/38/9 56/25/9 52/19/9 53/34/9 
s 2
f 62/50/11 58/45/11 53/43/11 61/49/11 
s 4
f 6/4/17 26/19/17 69/19/17 70/4/17 
s 1
f 26/19/14 19/17/14 71/17/14 69/19/14 
s 4
f 19/17/18 4/6/18 72/6/18 71/17/18 
s 2
f 70/4/11 69/19/11 22/19/11 21/4/11 
s 8
f 69/19/1 71/17/1 23/17/1 22/19/1 
s 2
f 71/17/7 72/6/7 24/6/7 23/17/7 
s 4
f 11/11/19 64/53/19 40/54/19 
f 42/32/20 50/55/20 17/56/20 
s 8
f 11/57/12 40/30/12 39/29/12 12/58/12 
s 16
f 14/59/21 60/47/21 64/52/21 11/60/21 
s 8
f 12/61/12 39/29/12 41/31/12 15/62/12 
f 15/63/12 41/31/12 42/32/12 17/64/12 
s 16
f 17/65/22 50/42/22 49/41/22 18/66/22 
s 32
f 27/67/17 62/50/17 61/49/17 20/68/17 
f 9/69/15 10/36/15 44/35/18 25/70/18 
f 30/71/17 63/51/17 62/50/17 27/72/17 
f 36/73/18 45/37/18 48/40/18 37/74/18 
f 40/75/17 64/52/17 63/51/17 30/76/17 
f 37/77/18 48/40/18 50/42/18 42/78/18 
f 20/79/17 61/49/17 1/48/17 5/80/17 
f 25/81/18 44/35/18 45/37/18 36/82/18 
s 1
f 73/83/1 74/2/1 75/84/1 76/85/1 
f 77/85/3 78/83/3 79/2/3 80/84/3 
f 81/86/4 82/87/4 83/88/4 84/89/4 
s 2
f 76/90/14 82/87/14 81/86/14 73/91/14 
f 77/92/12 84/89/12 83/88/12 78/93/12 
s 1
f 85/83/1 86/2/1 87/84/1 88/85/1 
f 89/85/3 90/83/3 91/2/3 92/84/3 
f 93/86/4 94/87/4 95/88/4 96/89/4 
s 2
f 88/90/14 94/87/14 93/86/14 85/91/14 
f 89/92/12 96/89/12 95/88/12 90/93/12 
s 1
f 97/83/1 98/2/1 99/84/1 100/85/1 
f 101/85/3 102/83/3 103/2/3 104/84/3 
f 105/86/4 106/87/4 107/88/4 108/89/4 
s 2
f 100/90/14 106/87/14 105/86/14 97/91/14 
f 101/92/12 108/89/12 107/88/12 102/93/12 
s 1
f 109/83/1 110/2/1 111/84/1 112/85/1 
f 113/85/3 114/83/3 115/2/3 116/84/3 
f 117/86/4 118/87/4 119/88/4 120/89/4 
s 2
f 112/90/14 118/87/14 117/86/14 109/91/14 
f 113/92/12 120/89/12 119/88/12 114/93/12 
s 1
f 121/83/1 122/2/1 123/84/1 124/85/1 
f 125/85/3 126/83/3 127/2/3 128/84/3 
f 129/86/4 130/87/4 131/88/4 132/89/4 
s 2
f 124/90/14 130/87/14 129/86/14 121/91/14 
f 125/92/12 132/89/12 131/88/12 126/93/12 
s 1
f 133/83/1 134/2/1 135/84/1 136/85/1 
f 137/85/3 138/83/3 139/2/3 140/84/3 
f 141/86/4 142/87/4 143/88/4 144/89/4 
s 2
f 136/90/14 142/87/14 141/86/14 133/91/14 
f 137/92/12 144/89/12 143/88/12 138/93/12 
s 1
f 145/83/1 146/2/1 147/84/1 148/85/1 
f 149/85/3 150/83/3 151/2/3 152/84/3 
f 153/86/4 154/87/4 155/88/4 156/89/4 
s 2
f 148/90/14 154/87/14 153/86/14 145/91/14 
f 149/92/12 156/89/12 155/88/12 150/93/12 
# 99 polygons - 6 triangles

